<svg id="Group_1" data-name="Group 1" xmlns="http://www.w3.org/2000/svg" width="43" height="41"
    viewBox="0 0 43 41">
    <rect width="43" height="41" rx="7" fill="rgba(217,217,217,0.3)" />
    <path
        d="M17.014,20.2c.019.062.032.127.057.187a1.008,1.008,0,0,0,.217.325l8.005,8a1.342,1.342,0,0,0,.324.217,1,1,0,0,0,1.215-1.48c-.036-.055-.083-.1-.124-.152l-7.3-7.3,7.3-7.3.124-.152c.031-.058.067-.113.092-.173a1,1,0,0,0-1.48-1.215c-.054.037-.1.083-.151.125l-8.005,8c-.041.051-.088.1-.124.152a1,1,0,0,0-.15.36A1.384,1.384,0,0,0,17.014,20.2Z"
        transform="translate(-0.997)" fill="#313131" />
</svg>
