<svg xmlns="http://www.w3.org/2000/svg" width="26" height="26.497" viewBox="0 0 26 26.497">
    <g id="ic_calculator_active" transform="translate(-4.805)">
        <path
            d="M55.382,97.8a.388.388,0,0,0-.549,0l-.98.98-.418-.418a.388.388,0,0,0-.549.549l.692.692a.388.388,0,0,0,.549,0l1.254-1.254A.388.388,0,0,0,55.382,97.8Z"
            transform="translate(-45.486 -92.634)" fill="#42cba1" />
        <path
            d="M47.971,177.735H46a.767.767,0,0,0-.766.766v1.972a.767.767,0,0,0,.766.766h1.972a.767.767,0,0,0,.766-.766V178.5A.767.767,0,0,0,47.971,177.735Zm-.011,2.727H46.01v-1.951h1.951S47.961,180.462,47.961,180.462Z"
            transform="translate(-38.337 -168.537)" fill="#42cba1" />
        <path
            d="M47.971,283H46a.767.767,0,0,0-.766.766v1.972a.767.767,0,0,0,.766.766h1.972a.767.767,0,0,0,.766-.766v-1.972A.767.767,0,0,0,47.971,283Zm-.011,2.727H46.01v-1.951h1.951S47.961,285.73,47.961,285.73Z"
            transform="translate(-38.337 -268.357)" fill="#42cba1" />
        <path
            d="M47.971,390.51H46a.767.767,0,0,0-.766.766v1.972a.767.767,0,0,0,.766.766h1.972a.767.767,0,0,0,.766-.766v-1.972A.767.767,0,0,0,47.971,390.51Zm-.011,2.727H46.01v-1.951h1.951S47.961,393.237,47.961,393.237Z"
            transform="translate(-38.337 -370.3)" fill="#42cba1" />
        <path
            d="M30.417,10.382a.388.388,0,0,0-.388.388V25.2a.525.525,0,0,1-.524.524h-13.9a.525.525,0,0,1-.524-.524V5.783a.525.525,0,0,1,.524-.524H29.5a.525.525,0,0,1,.524.524v3.4a.388.388,0,0,0,.776,0v-3.4a1.3,1.3,0,0,0-1.3-1.3h-2.08V2.292A2.3,2.3,0,0,0,25.132,0H7.422A2.62,2.62,0,0,0,4.8,2.617V24.178A2.3,2.3,0,0,0,7.1,26.47h6.214a.388.388,0,0,0,0-.776H7.1a1.518,1.518,0,0,1-1.516-1.516V2.617A1.843,1.843,0,0,1,7.422.776H23.415a2.282,2.282,0,0,0-.575,1.516V3.364a.388.388,0,1,0,.776,0V2.292a1.516,1.516,0,0,1,3.032,0V4.483H15.607a1.3,1.3,0,0,0-1.3,1.3v.269H12.29a.388.388,0,0,0,0,.776h2.017v3.733H12.29a.388.388,0,0,0,0,.776h2.017V16.01H12.29a.388.388,0,0,0,0,.776h2.017v4.787H12.29a.388.388,0,0,0,0,.776h2.017V25.2a1.3,1.3,0,0,0,1.3,1.3H29.5a1.3,1.3,0,0,0,1.3-1.3V10.771A.388.388,0,0,0,30.417,10.382Z"
            transform="translate(0)" fill="#42cba1" />
        <path
            d="M228.69,113.484H217.041a.925.925,0,0,0-.924.924v2.9a.925.925,0,0,0,.924.924H228.69a.925.925,0,0,0,.924-.924v-2.9h0A.925.925,0,0,0,228.69,113.484Zm0,3.972H217.041a.148.148,0,0,1-.148-.148v-2.9a.148.148,0,0,1,.148-.148H228.69a.148.148,0,0,1,.148.148v2.9h0A.148.148,0,0,1,228.69,117.456Z"
            transform="translate(-200.376 -107.611)" fill="#42cba1" />
        <path
            d="M218.18,220.209H216.9a.787.787,0,0,0-.786.786v1.247a.787.787,0,0,0,.786.786h1.277a.787.787,0,0,0,.786-.786v-1.247A.787.787,0,0,0,218.18,220.209Zm.009,2.033a.009.009,0,0,1-.009.009H216.9a.009.009,0,0,1-.009-.009v-1.247a.009.009,0,0,1,.009-.009h1.277a.009.009,0,0,1,.009.009Z"
            transform="translate(-200.376 -208.813)" fill="#42cba1" />
        <path
            d="M286.762,220.209h-1.277a.787.787,0,0,0-.786.786v1.247a.787.787,0,0,0,.786.786h1.277a.787.787,0,0,0,.786-.786v-1.247A.786.786,0,0,0,286.762,220.209Zm.009,2.033a.009.009,0,0,1-.009.009h-1.277a.009.009,0,0,1-.009-.009v-1.247a.009.009,0,0,1,.009-.009h1.277a.009.009,0,0,1,.009.009v1.247Z"
            transform="translate(-265.409 -208.813)" fill="#42cba1" />
        <path
            d="M355.345,220.209h-1.277a.787.787,0,0,0-.786.786v1.247a.787.787,0,0,0,.786.786h1.277a.787.787,0,0,0,.786-.786v-1.247A.786.786,0,0,0,355.345,220.209Zm.009,2.033a.009.009,0,0,1-.009.009h-1.277a.009.009,0,0,1-.009-.009v-1.247a.009.009,0,0,1,.009-.009h1.277a.009.009,0,0,1,.009.009Z"
            transform="translate(-330.442 -208.813)" fill="#42cba1" />
        <path
            d="M423.93,220.209h-1.277a.787.787,0,0,0-.786.786v1.247a.787.787,0,0,0,.786.786h1.277a.787.787,0,0,0,.786-.786v-1.247A.787.787,0,0,0,423.93,220.209Zm.009,2.033a.009.009,0,0,1-.009.009h-1.277a.009.009,0,0,1-.009-.009v-1.247a.009.009,0,0,1,.009-.009h1.277a.009.009,0,0,1,.009.009Z"
            transform="translate(-395.478 -208.813)" fill="#42cba1" />
        <path
            d="M218.18,289.615H216.9a.787.787,0,0,0-.786.786v1.247a.787.787,0,0,0,.786.786h1.277a.787.787,0,0,0,.786-.786V290.4A.787.787,0,0,0,218.18,289.615Zm.009,2.033a.009.009,0,0,1-.009.009H216.9a.009.009,0,0,1-.009-.009V290.4a.009.009,0,0,1,.009-.009h1.277a.009.009,0,0,1,.009.009Z"
            transform="translate(-200.376 -274.627)" fill="#42cba1" />
        <path
            d="M286.762,289.615h-1.277a.787.787,0,0,0-.786.786v1.247a.787.787,0,0,0,.786.786h1.277a.787.787,0,0,0,.786-.786V290.4A.786.786,0,0,0,286.762,289.615Zm.009,2.033a.009.009,0,0,1-.009.009h-1.277a.009.009,0,0,1-.009-.009V290.4a.009.009,0,0,1,.009-.009h1.277a.009.009,0,0,1,.009.009v1.247Z"
            transform="translate(-265.409 -274.627)" fill="#42cba1" />
        <path
            d="M355.345,289.615h-1.277a.787.787,0,0,0-.786.786v1.247a.787.787,0,0,0,.786.786h1.277a.787.787,0,0,0,.786-.786V290.4A.786.786,0,0,0,355.345,289.615Zm.009,2.033a.009.009,0,0,1-.009.009h-1.277a.009.009,0,0,1-.009-.009V290.4a.009.009,0,0,1,.009-.009h1.277a.009.009,0,0,1,.009.009Z"
            transform="translate(-330.442 -274.627)" fill="#42cba1" />
        <path
            d="M423.93,289.615h-1.277a.787.787,0,0,0-.786.786v1.247a.787.787,0,0,0,.786.786h1.277a.787.787,0,0,0,.786-.786V290.4A.787.787,0,0,0,423.93,289.615Zm.009,2.033a.009.009,0,0,1-.009.009h-1.277a.009.009,0,0,1-.009-.009V290.4a.009.009,0,0,1,.009-.009h1.277a.009.009,0,0,1,.009.009Z"
            transform="translate(-395.478 -274.627)" fill="#42cba1" />
        <path
            d="M218.18,359.021H216.9a.787.787,0,0,0-.786.786v1.247a.787.787,0,0,0,.786.786h1.277a.787.787,0,0,0,.786-.786v-1.247A.787.787,0,0,0,218.18,359.021Zm.009,2.033a.009.009,0,0,1-.009.009H216.9a.009.009,0,0,1-.009-.009v-1.247a.009.009,0,0,1,.009-.009h1.277a.009.009,0,0,1,.009.009Z"
            transform="translate(-200.376 -340.441)" fill="#42cba1" />
        <path
            d="M286.762,359.021h-1.277a.787.787,0,0,0-.786.786v1.247a.787.787,0,0,0,.786.786h1.277a.787.787,0,0,0,.786-.786v-1.247A.786.786,0,0,0,286.762,359.021Zm.009,2.033a.009.009,0,0,1-.009.009h-1.277a.009.009,0,0,1-.009-.009v-1.247a.009.009,0,0,1,.009-.009h1.277a.009.009,0,0,1,.009.009v1.247Z"
            transform="translate(-265.409 -340.441)" fill="#42cba1" />
        <path
            d="M355.345,359.021h-1.277a.787.787,0,0,0-.786.786v1.247a.787.787,0,0,0,.786.786h1.277a.787.787,0,0,0,.786-.786v-1.247A.786.786,0,0,0,355.345,359.021Zm.009,2.033a.009.009,0,0,1-.009.009h-1.277a.009.009,0,0,1-.009-.009v-1.247a.009.009,0,0,1,.009-.009h1.277a.009.009,0,0,1,.009.009Z"
            transform="translate(-330.442 -340.441)" fill="#42cba1" />
        <path
            d="M423.93,359.021h-1.277a.787.787,0,0,0-.786.786v4.623a.787.787,0,0,0,.786.786h1.277a.787.787,0,0,0,.786-.786v-4.623A.787.787,0,0,0,423.93,359.021Zm.009,5.409a.009.009,0,0,1-.009.009h-1.277a.009.009,0,0,1-.009-.009v-4.623a.009.009,0,0,1,.009-.009h1.277a.009.009,0,0,1,.009.009Z"
            transform="translate(-395.478 -340.441)" fill="#42cba1" />
        <path
            d="M218.181,424.248H216.9a.787.787,0,0,0-.786.786v1.247a.787.787,0,0,0,.786.786h1.277a.787.787,0,0,0,.786-.786v-1.247A.787.787,0,0,0,218.181,424.248Zm.009,2.033a.009.009,0,0,1-.009.009H216.9a.009.009,0,0,1-.009-.009v-1.247a.009.009,0,0,1,.009-.009h1.277a.009.009,0,0,1,.009.009Z"
            transform="translate(-200.377 -402.292)" fill="#42cba1" />
        <path
            d="M286.764,424.248h-1.277a.787.787,0,0,0-.786.786v1.247a.787.787,0,0,0,.786.786h1.277a.787.787,0,0,0,.786-.786v-1.247A.787.787,0,0,0,286.764,424.248Zm.009,2.033a.009.009,0,0,1-.009.009h-1.277a.009.009,0,0,1-.009-.009v-1.247a.009.009,0,0,1,.009-.009h1.277a.009.009,0,0,1,.009.009v1.247Z"
            transform="translate(-265.411 -402.292)" fill="#42cba1" />
        <path
            d="M355.347,424.248H354.07a.787.787,0,0,0-.786.786v1.247a.787.787,0,0,0,.786.786h1.277a.787.787,0,0,0,.786-.786v-1.247A.787.787,0,0,0,355.347,424.248Zm.009,2.033a.009.009,0,0,1-.009.009H354.07a.009.009,0,0,1-.009-.009v-1.247a.009.009,0,0,1,.009-.009h1.277a.009.009,0,0,1,.009.009Z"
            transform="translate(-330.444 -402.292)" fill="#42cba1" />
    </g>
</svg>
