<svg id="ic_exclamation_mark" xmlns="http://www.w3.org/2000/svg" width="21" height="21"
    viewBox="0 0 21 21">
    <path id="path" d="M10.5,10.5,0,10.5a10.5,10.5,0,1,1,3.075,7.425A10.506,10.506,0,0,1,0,10.5"
        fill="#313131" fill-rule="evenodd" />
    <path id="path_2"
        d="M9.918,11.729,9.652,7.753l-.06-1.089c-.01-.236-.015-.43-.015-.579A1.51,1.51,0,0,1,9.938,5.01a1.241,1.241,0,0,1,.951-.387.956.956,0,0,1,.954.494,3.336,3.336,0,0,1,.241,1.424c0,.244-.009.489-.026.738l-.389,4.467a3.216,3.216,0,0,1-.249,1.12.652.652,0,0,1-.631.39.63.63,0,0,1-.623-.377A3.747,3.747,0,0,1,9.918,11.729Zm.921,5.462a1.3,1.3,0,0,1-.884-.328,1.149,1.149,0,0,1-.378-.917,1.233,1.233,0,0,1,1.245-1.237,1.231,1.231,0,0,1,.893.361,1.181,1.181,0,0,1,.369.876,1.157,1.157,0,0,1-.374.913A1.271,1.271,0,0,1,10.839,17.191Z"
        fill="#fffcfc" />
</svg>
