<svg id="ic_google" xmlns="http://www.w3.org/2000/svg" width="32" height="32" viewBox="0 0 32 32">
    <circle cx="16" cy="16" r="16" fill="#fff" />
    <g transform="translate(4.8 4.8)">
        <path
            d="M4.964,104.275l-.78,2.911-2.85.06a11.22,11.22,0,0,1-.082-10.458h0l2.537.465L4.9,99.775a6.684,6.684,0,0,0,.063,4.5Z"
            transform="translate(0 -90.738)" fill="#fbbb00" />
        <path
            d="M193.9,145.723a11.2,11.2,0,0,1-3.993,10.826h0l-3.2-.163-.452-2.823a6.675,6.675,0,0,0,2.872-3.409H183.14v-4.431H193.9Z"
            transform="translate(-171.693 -136.615)" fill="#518ef8" />
        <path
            d="M38.233,222.983h0a11.2,11.2,0,0,1-16.877-3.426l3.63-2.971a6.661,6.661,0,0,0,9.6,3.41Z"
            transform="translate(-20.022 -203.05)" fill="#28b446" />
        <path
            d="M37.133,2.578l-3.628,2.97a6.66,6.66,0,0,0-9.819,3.487L20.037,6.049h0a11.2,11.2,0,0,1,17.1-3.471Z"
            transform="translate(-18.785)" fill="#f14336" />
    </g>
</svg>
