<svg xmlns="http://www.w3.org/2000/svg" width="26" height="24.375" viewBox="0 0 26 24.375">
  <g id="ic_login" transform="translate(0 -4)">
    <path id="Sign_In_1_" d="M19.262,16.762l-8.125,8.125a.812.812,0,1,1-1.149-1.149L16.726,17H.813a.812.812,0,1,1,0-1.625H16.726L9.988,8.637a.812.812,0,1,1,1.149-1.149l8.125,8.125a.812.812,0,0,1,0,1.149ZM26,23.5V8.875A4.88,4.88,0,0,0,21.125,4H15.438a.812.812,0,1,0,0,1.625h5.688a3.254,3.254,0,0,1,3.25,3.25V23.5a3.254,3.254,0,0,1-3.25,3.25H15.438a.813.813,0,0,0,0,1.625h5.688A4.88,4.88,0,0,0,26,23.5Z" fill="#313131"/>
  </g>
</svg>
