<svg id="ic_logout" xmlns="http://www.w3.org/2000/svg" width="26" height="24.375" viewBox="0 0 26 24.375">
  <path id="Sign_In_1_" d="M6.738,16.762l8.125,8.125a.812.812,0,1,0,1.149-1.149L9.274,17H25.188a.812.812,0,1,0,0-1.625H9.274l6.738-6.738a.812.812,0,0,0-1.149-1.149L6.738,15.613a.812.812,0,0,0,0,1.149ZM0,23.5V8.875A4.88,4.88,0,0,1,4.875,4h5.687a.813.813,0,0,1,0,1.625H4.875a3.254,3.254,0,0,0-3.25,3.25V23.5a3.254,3.254,0,0,0,3.25,3.25h5.687a.813.813,0,1,1,0,1.625H4.875A4.88,4.88,0,0,1,0,23.5Z" transform="translate(0 -4)" fill="#313131"/>
</svg>
