<svg id="Group_1" data-name="Group 1" xmlns="http://www.w3.org/2000/svg" width="147.869"
    height="198" viewBox="0 0 147.869 198">
    <path
        d="M125.927,97.282a21.59,21.59,0,0,1-13.669-7.791c-.338-.419-.97.128-.633.546a22.459,22.459,0,0,0,14.241,8.079c.533.076.591-.757.061-.833Z"
        transform="translate(-89.956 0)" fill="#fff" />
    <path
        d="M142.359,117.268a21.59,21.59,0,0,1-15.6,2.008c-.522-.131-.7.686-.177.817a22.455,22.455,0,0,0,16.234-2.123C143.284,117.71,142.829,117.009,142.359,117.268Z"
        transform="translate(-121.407 0)" fill="#fff" />
    <path
        d="M5.872,119.014c4-19.333,9-25.778,9-25.778l1.91-1.481,2.3-1.784-.011-.229.544-.185.128-.1.21-.161.033.036.072.074,10.39-3.532L43.622,81.4l6.1-7.934a10.558,10.558,0,0,1,8.446-4.12l19.494.144a10.557,10.557,0,0,1,7.1,2.817L97.581,84.19l19.966,9.535.034-.034.21.15,3.085,1.475-.127.663,1.909,1.378s5,6,9,23.987c1.017,4.577,1.518,14.4,1.7,26.5a4.62,4.62,0,0,1-4.616,4.687H8.785a4.622,4.622,0,0,1-4.617-4.682C4.345,134.678,4.845,123.978,5.872,119.014Z"
        transform="translate(10.349 0)" fill="#313131" />
    <path d="M72.662,62.02A25.54,25.54,0,1,1,98.2,36.48,25.54,25.54,0,0,1,72.662,62.02Z"
        transform="translate(2.544 0)" fill="#9e616a" />
    <path d="M65.8,60.769q.164-.36.326-.723c-.042,0-.083.007-.125.008Z"
        transform="translate(15.938 0)" fill="#2f2e41" />
    <path
        d="M95.611,12.1a7.109,7.109,0,0,0-4.453-1.925c-1.651.053-3.326,1.545-2.984,3.161A26.245,26.245,0,0,0,56.59,1.5c-4.1,1.448-8.13,4.345-9.073,8.595a7.741,7.741,0,0,1-.975,3.173,3.622,3.622,0,0,1-3.855.977l-.04-.012a1.207,1.207,0,0,0-1.458,1.7L42.35,18.1A9.309,9.309,0,0,1,37.916,18a1.206,1.206,0,0,0-1.28,1.876,21.016,21.016,0,0,0,16.757,8.613c4.64-.028,9.329-1.628,13.845-.561a12.026,12.026,0,0,1,8.089,16.882c1.387-1.518,4.069-1.158,5.489.33a7.528,7.528,0,0,1,1.643,5.76,26.724,26.724,0,0,1-2.744,8.971,27.535,27.535,0,0,0,24.6-18.271A27.533,27.533,0,0,0,95.611,12.1Z"
        transform="translate(5.845 0)" fill="#313131" />
    <path d="M40.766,113.177,33.6,152.151l-4.3.375Z" transform="translate(77.798 0)" fill="#fff"
        opacity="0.2" />
    <path d="M96.748,110.238l7.164,41.885,4.3.4Z" transform="translate(-57.089 0)" fill="#fff"
        opacity="0.2" />
    <path
        d="M109.137,83.17a2.546,2.546,0,0,0,3.407-1.494,2.585,2.585,0,0,0-1.355-3.528,2.715,2.715,0,0,0-2.052,5.022Zm2.631-7.9,1.092.456a1.178,1.178,0,0,0,1.5-.549l.054-.106a9.552,9.552,0,0,0,.4-7.651c-.845-2.652-1.2-4.517-.49-6.207.816-1.954,2.558-2.566,4.779-1.679a4.065,4.065,0,0,1,1.814,1.027,1.552,1.552,0,0,0,1.127.458,1.507,1.507,0,0,0,1.077-.472,1.538,1.538,0,0,0,.01-2.1,11.939,11.939,0,0,0-4.037-2.772c-4.772-1.993-7.175.949-8.275,3.582-1.075,2.575-.47,4.965.5,8.06.814,2.571.767,4.477-.158,6.372a1.166,1.166,0,0,0-.031.919,1.175,1.175,0,0,0,.642.659Z"
        transform="translate(-83.186 0)" fill="#313131" />
    <path d="M132.225,166.713a15.644,15.644,0,0,1,0,31.287H15.643a15.644,15.644,0,0,1,0-31.287Z"
        transform="translate(0 0)" fill="#e5e5e5" />
    <path d="M132.225,169.879a12.478,12.478,0,0,1,0,24.955H15.643a12.478,12.478,0,1,1,0-24.955Z"
        transform="translate(0 0)" fill="#fff" />
    <path
        d="M18.192,189.817h23.2a.547.547,0,0,0,.215-.041.559.559,0,0,0,0-1.035.547.547,0,0,0-.215-.041h-23.2a.559.559,0,0,0,0,1.117Z"
        transform="translate(88.282 0)" fill="#313131" />
    <path
        d="M47.625,190h23.2a.566.566,0,0,0,.215-.042.559.559,0,0,0,.183-.914.542.542,0,0,0-.183-.12.566.566,0,0,0-.215-.042h-23.2a.566.566,0,0,0-.215.042.543.543,0,0,0-.183.12.56.56,0,0,0,.4.956Z"
        transform="translate(29.424 0)" fill="#313131" />
    <path
        d="M77.056,190.19h23.2a.559.559,0,0,0,0-1.118h-23.2a.564.564,0,0,0-.215.042.568.568,0,0,0-.305.3.557.557,0,0,0,.123.612.555.555,0,0,0,.182.12.564.564,0,0,0,.215.042Z"
        transform="translate(-29.432 0)" fill="#313131" />
    <path d="M106.474,190.376h23.2a.559.559,0,0,0,0-1.117h-23.2a.559.559,0,0,0,0,1.117Z"
        transform="translate(-88.275 0)" fill="#313131" />
    <path d="M29.746,184.675a4.311,4.311,0,1,1,4.311-4.311A4.311,4.311,0,0,1,29.746,184.675Z"
        transform="translate(88.376 0)" fill="#313131" />
    <path d="M59.349,184.675a4.311,4.311,0,1,1,4.311-4.311A4.311,4.311,0,0,1,59.349,184.675Z"
        transform="translate(29.171 0)" fill="#313131" />
    <path d="M88.952,184.675a4.311,4.311,0,1,1,4.311-4.311A4.311,4.311,0,0,1,88.952,184.675Z"
        transform="translate(-30.034 0)" fill="#313131" />
    <path d="M118.554,184.675a4.311,4.311,0,1,1,4.311-4.311A4.311,4.311,0,0,1,118.554,184.675Z"
        transform="translate(-89.239 0)" fill="#313131" />
</svg>
